<svg id="Layer_1" enable-background="new 0 0 100 100" viewBox="0 0 100 100" xmlns="http://www.w3.org/2000/svg"><path clip-rule="evenodd" d="m40.3824539 96.3795547c-35.3032617-8.0592422-23.3505897-25.3731384-30.4195041-44.406681 6.2685909-.5847206 13.9694996 16.7217445 12.6350975 8.7142601-8.1088162-31.9553986 23.7560863-30.2943421 15.8159694-58.1871338 31.2603607 4.2791648 19.7039032 32.6857376 33.948349 41.0349922 3.9683762 1.0088654 9.0359039-1.8446579 1.2760696-17.180666 33.6691818 39.6042709 9.7918854 71.3960571-20.5068893 71.1441879 31.963974-9.6252975 5.2877769-37.4571419-8.8367996-47.1089363-.6420288 15.8152504 16.4358711 27.2433128 4.7509918 32.7005424.2787971-4.7181168.32164-9.4919128-11.171257-16.4358749 4.1642609 18.3073102-10.2724209 15.7938443 2.5079727 29.7253094z" fill-rule="evenodd"/></svg>